<svg width="1506" height="1503" viewBox="0 0 1506 1503" fill="none" xmlns="http://www.w3.org/2000/svg">
<path d="M753 0L775.68 574.467L940.512 23.6883L819.616 585.748L1116.24 93.2648L859.366 607.6L1269.15 204.358L892.432 638.652L1389.62 349.987L916.737 676.951L1470.1 521.001L930.755 720.091L1505.51 706.656L933.603 765.363L1493.64 895.286L925.103 809.92L1435.24 1075.04L905.79 850.963L1333.97 1234.62L876.876 885.914L1196.19 1364L840.178 912.576L1030.57 1455.05L798.003 929.275L847.501 1502.05L753 934.96L658.499 1502.05L707.997 929.275L475.434 1455.05L665.822 912.576L309.81 1364L629.124 885.914L172.033 1234.62L600.21 850.963L70.7604 1075.04L580.897 809.92L12.3554 895.286L572.397 765.363L0.487854 706.656L575.245 720.091L35.9034 521.001L589.263 676.951L116.377 349.987L613.568 638.652L236.852 204.358L646.634 607.6L389.758 93.2648L686.384 585.748L565.488 23.6883L730.32 574.467L753 0Z" fill="#FF0000"/>
</svg>
