<svg width="1506" height="1503" viewBox="0 0 1506 1503" fill="none" xmlns="http://www.w3.org/2000/svg">
<path d="M753 0L834.271 110.673L940.512 23.6883L991.707 151.096L1116.24 93.2648L1134.14 229.401L1269.15 204.358L1252.63 340.669L1389.62 349.987L1339.73 477.908L1470.1 521.001L1389.95 632.494L1505.51 706.656L1400.16 794.716L1493.64 895.286L1369.7 954.379L1435.24 1075.04L1300.5 1101.45L1333.97 1234.62L1196.89 1226.69L1196.19 1364L1065.39 1322.23L1030.57 1455.05L914.26 1382.07L847.501 1502.05L753 1402.44L658.499 1502.05L591.74 1382.07L475.434 1455.05L440.612 1322.23L309.81 1364L309.112 1226.69L172.033 1234.62L205.504 1101.45L70.7604 1075.04L136.297 954.379L12.3554 895.286L105.84 794.716L0.487854 706.656L116.046 632.494L35.9034 521.001L166.274 477.908L116.377 349.987L253.368 340.669L236.852 204.358L371.857 229.401L389.758 93.2648L514.293 151.096L565.488 23.6883L671.729 110.673L753 0Z" fill="#FF0000"/>
</svg>
